<svg width="14.500015" height="12.973633" viewBox="0 0 14.5 12.9736" fill="none" xmlns="http://www.w3.org/2000/svg" xmlns:xlink="http://www.w3.org/1999/xlink">
	<desc>
			Created with Pixso.
	</desc>
	<defs/>
	<path id="Icon" d="M9.13 8.96C6.92 10.54 3.69 10.42 1.64 8.59C-0.55 6.62 -0.55 3.43 1.64 1.47C3.84 -0.5 7.4 -0.5 9.6 1.47C11.65 3.3 11.78 6.19 10.02 8.17L14.31 12.01C14.56 12.23 14.56 12.59 14.31 12.8C14.07 13.02 13.67 13.02 13.43 12.8L9.13 8.96ZM2.53 7.8C0.82 6.27 0.82 3.79 2.53 2.26C4.24 0.73 7.01 0.73 8.71 2.26C10.42 3.79 10.42 6.26 8.72 7.79C8.72 7.79 8.72 7.8 8.71 7.8C8.71 7.8 8.71 7.8 8.71 7.8C7 9.32 4.23 9.32 2.53 7.8Z" fill="#000000" fill-opacity="1.000000" fill-rule="evenodd"/>
</svg>
