<svg width="96.000000" height="96.000000" viewBox="0 0 96 96" fill="none" xmlns="http://www.w3.org/2000/svg" xmlns:xlink="http://www.w3.org/1999/xlink">
	<desc>
			Created with Pixso.
	</desc>
	<defs/>
	<rect id="back" rx="21.000000" width="96.000000" height="96.000000" fill="#F2F2F2" fill-opacity="1.000000"/>
	<path id="Icon" d="M43.11 28.07C43.11 27.18 43.83 26.46 44.73 26.46L53.33 26.46C54.22 26.46 54.94 27.18 54.94 28.07L54.94 29.69L62.47 29.69C63.36 29.69 64.09 30.41 64.09 31.3C64.09 32.19 63.36 32.91 62.47 32.91L35.58 32.91C34.69 32.91 33.97 32.19 33.97 31.3C33.97 30.41 34.69 29.69 35.58 29.69L43.11 29.69L43.11 28.07ZM37.71 37.22C36.88 37.22 36.19 37.84 36.1 38.65L35.67 42.53C34.89 49.55 34.89 56.64 35.67 63.67L35.71 64.05C36.02 66.84 38.18 69.06 40.96 69.45C46.31 70.2 51.74 70.2 57.09 69.45C59.87 69.06 62.03 66.84 62.34 64.05L62.38 63.67C63.16 56.64 63.16 49.55 62.38 42.53L61.95 38.65C61.86 37.84 61.17 37.22 60.35 37.22L37.71 37.22ZM38.88 42.88L39.15 40.44L58.91 40.44L59.18 42.88C59.93 49.67 59.93 56.52 59.18 63.31L59.13 63.69C58.99 65.01 57.96 66.07 56.64 66.25C51.59 66.96 46.46 66.96 41.41 66.25C40.09 66.07 39.07 65.01 38.92 63.69L38.88 63.31C38.12 56.52 38.12 49.67 38.88 42.88Z" fill="#10BB87" fill-opacity="1.000000" fill-rule="evenodd"/>
</svg>
