<svg width="96.000000" height="96.000000" viewBox="0 0 96 96" fill="none" xmlns="http://www.w3.org/2000/svg" xmlns:xlink="http://www.w3.org/1999/xlink">
	<desc>
			Created with Pixso.
	</desc>
	<defs/>
	<rect id="back" rx="21.000000" width="96.000000" height="96.000000" fill="#F2F2F2" fill-opacity="1.000000"/>
	<path id="Icon" d="M40.99 66.21C39.61 65.78 38.65 64.52 38.6 63.08L38.43 36.13L57.47 36.13L57.3 63.08C57.26 64.52 56.3 65.78 54.92 66.21C50.38 67.6 45.53 67.6 40.99 66.21ZM41.83 62.98L41.68 58.25C43.58 59.16 45.71 59.67 47.95 59.67C50.2 59.67 52.32 59.16 54.22 58.25L54.08 62.98C54.08 63.05 54.03 63.1 53.97 63.12C50.05 64.33 45.86 64.33 41.94 63.12C41.87 63.1 41.83 63.05 41.83 62.98ZM41.83 55.43L41.68 39.52L54.22 39.52L54.08 55.43C54.08 55.49 54.03 55.55 53.97 55.57C50.05 56.77 45.86 56.77 41.94 55.57C41.87 55.55 41.83 55.49 41.83 55.43Z" fill="#10BB87" fill-opacity="1.000000" fill-rule="evenodd"/>
	<path id="Icon" d="M42.04 30.83C42.04 29.94 42.76 29.22 43.65 29.22L52.26 29.22C53.15 29.22 53.87 29.94 53.87 30.83L53.87 34.06L42.04 34.06L42.04 30.83Z" fill="#10BB87" fill-opacity="1.000000" fill-rule="nonzero"/>
</svg>
