<svg width="96.000000" height="96.000000" viewBox="0 0 96 96" fill="none" xmlns="http://www.w3.org/2000/svg" xmlns:xlink="http://www.w3.org/1999/xlink">
	<desc>
			Created with Pixso.
	</desc>
	<defs/>
	<rect id="back" rx="21.000000" width="96.000000" height="96.000000" fill="#F2F2F2" fill-opacity="1.000000"/>
	<path id="Icon" d="M36.1 29.04C36.19 28.22 36.88 27.6 37.71 27.6L60.35 27.6C61.17 27.6 61.86 28.22 61.95 29.04L62.38 32.91C62.43 33.32 62.47 33.67 62.51 34C62.67 35.36 62.79 36.35 62.87 39.06L59.61 38.05C59.54 36.03 59.45 35.35 59.33 34.48C59.28 34.14 59.23 33.77 59.18 33.27L58.91 30.83L39.15 30.83L38.88 33.27C38.12 40.06 38.12 55.38 38.88 62.17L38.92 62.55C39.07 63.87 40.09 64.93 41.41 65.11C46.46 65.82 51.59 65.82 56.65 65.11C57.96 64.93 58.99 63.87 59.13 62.55L59.18 62.17C59.25 61.5 59.32 58.18 59.38 57.32L62.63 57.12C62.56 58.2 62.48 61.7 62.38 62.53L62.34 62.91C62.03 65.7 59.87 67.92 57.09 68.31C51.74 69.06 46.31 69.06 40.96 68.31C38.18 67.92 36.02 65.7 35.71 62.91L35.67 62.53C34.89 55.5 34.89 39.94 35.67 32.91L36.1 29.04Z" fill="#10BB87" fill-opacity="1.000000" fill-rule="evenodd"/>
	<path id="Icon (Stroke)" d="M61.47 41.97C59.66 40.98 57.4 40.9 55.86 41.17C54.98 41.32 54.14 40.73 53.99 39.85C53.84 38.98 54.43 38.14 55.3 37.99C57.31 37.64 60.37 37.7 63.01 39.13C65.79 40.65 67.86 43.56 67.89 48.35C67.9 50.71 67.42 52.64 66.53 54.18C65.64 55.73 64.39 56.8 63.03 57.49C60.37 58.86 57.28 58.82 55.26 58.41C54.39 58.24 53.82 57.39 54 56.51C54.17 55.64 55.03 55.08 55.9 55.25C57.47 55.57 59.76 55.55 61.56 54.62C62.43 54.18 63.19 53.52 63.73 52.57C64.29 51.62 64.68 50.27 64.66 48.37C64.64 44.66 63.14 42.88 61.47 41.97Z" fill="#10BB87" fill-opacity="1.000000" fill-rule="evenodd"/>
	<path id="Icon (Stroke)" d="M56.76 47.4C56.52 47.28 56.14 47.24 55.86 47.29C54.98 47.44 54.14 46.86 53.99 45.98C53.84 45.1 54.43 44.26 55.3 44.11C56.06 43.98 57.23 43.99 58.3 44.57C59.51 45.23 60.31 46.48 60.33 48.26C60.33 49.11 60.15 49.89 59.77 50.55C59.39 51.21 58.85 51.67 58.28 51.96C57.2 52.52 56.01 52.48 55.26 52.33C54.39 52.16 53.82 51.31 54 50.43C54.17 49.56 55.03 48.99 55.9 49.17C56.02 49.2 56.2 49.21 56.38 49.2C56.57 49.18 56.71 49.14 56.81 49.09C56.89 49.05 56.94 49 56.98 48.93C57.02 48.86 57.1 48.68 57.1 48.28C57.1 47.89 57.01 47.69 56.96 47.6C56.91 47.51 56.85 47.45 56.76 47.4Z" fill="#10BB87" fill-opacity="1.000000" fill-rule="evenodd"/>
</svg>
