<svg width="96.000000" height="96.000000" viewBox="0 0 96 96" fill="none" xmlns="http://www.w3.org/2000/svg" xmlns:xlink="http://www.w3.org/1999/xlink">
	<desc>
			Created with Pixso.
	</desc>
	<defs/>
	<rect id="back" rx="21.000000" width="96.000000" height="96.000000" fill="#F2F2F2" fill-opacity="1.000000"/>
	<path id="Icon" d="M63.55 45.01L63.54 45.53L63.55 46.08L63.54 46.61L63.55 47.16L63.54 47.69L63.55 48.24L63.2 63.52C63.12 67.14 60.36 70.14 56.75 70.53C51.62 71.09 46.44 71.09 41.3 70.53C37.7 70.14 34.94 67.14 34.86 63.52L34.51 48.24L34.52 47.68L34.51 47.16L34.52 46.61L34.51 46.08L34.52 45.53L34.51 45.01L34.86 31.89C34.86 31.71 34.88 31.53 34.9 31.35L34.91 31.27L34.91 31.21C35.08 29.44 36.07 27.89 37.5 26.96C37.61 26.89 37.72 26.83 37.83 26.76C37.94 26.7 38.05 26.64 38.16 26.58C38.86 26.21 39.65 25.97 40.48 25.89C46.17 25.37 51.89 25.37 57.57 25.89C58.41 25.97 59.19 26.21 59.89 26.58C60 26.63 60.12 26.7 60.23 26.76C60.34 26.83 60.45 26.9 60.56 26.97C61.99 27.89 62.97 29.43 63.14 31.2L63.16 31.36C63.18 31.53 63.19 31.71 63.2 31.89L63.55 45.01ZM59.94 31.72L60.28 46.49L60.01 62.65C59.95 64.94 58.18 66.82 55.91 67.03C51.33 67.45 46.73 67.45 42.15 67.03C39.87 66.82 38.11 64.94 38.05 62.65L37.77 46.49L38.11 31.72C38.11 31.68 38.11 31.65 38.12 31.62C38.24 30.76 38.75 30.01 39.46 29.55C39.73 29.41 40.02 29.32 40.34 29.29C46.12 28.66 51.94 28.66 57.71 29.29C58.03 29.32 58.33 29.41 58.6 29.55C59.31 30.01 59.81 30.76 59.94 31.62C59.94 31.65 59.94 31.68 59.94 31.72ZM49.03 64.04C50.81 64.04 52.25 62.6 52.25 60.81C52.25 59.03 50.81 57.59 49.03 57.59C47.25 57.59 45.8 59.03 45.8 60.81C45.8 62.6 47.25 64.04 49.03 64.04Z" fill="#10BB87" fill-opacity="1.000000" fill-rule="evenodd"/>
</svg>
