<svg width="96.000000" height="96.000000" viewBox="0 0 96 96" fill="none" xmlns="http://www.w3.org/2000/svg" xmlns:xlink="http://www.w3.org/1999/xlink">
	<desc>
			Created with Pixso.
	</desc>
	<defs/>
	<rect id="back" rx="21.000000" width="96.000000" height="96.000000" fill="#F2F2F2" fill-opacity="1.000000"/>
	<path id="Icon" d="M60.17 29.62C59.79 29.25 59.29 29.04 58.76 29.04C58.24 29.04 57.73 29.25 57.36 29.62L33.06 53.92C32.81 54.17 32.63 54.49 32.54 54.83L29.9 64.95C29.72 65.63 29.91 66.35 30.41 66.85C30.91 67.35 31.63 67.55 32.32 67.37L42.44 64.72C42.78 64.64 43.09 64.46 43.34 64.21L67.64 39.9C68.42 39.13 68.42 37.87 67.64 37.1L60.17 29.62ZM36.24 56.35L58.76 33.83L63.44 38.5L40.91 61.02L34.59 62.68L36.24 56.35Z" fill="#10BB87" fill-opacity="1.000000" fill-rule="evenodd"/>
</svg>
