<svg width="118.588379" height="118.661011" viewBox="0 0 118.588 118.661" fill="none" xmlns="http://www.w3.org/2000/svg" xmlns:xlink="http://www.w3.org/1999/xlink">
	<desc>
			Created with Pixso.
	</desc>
	<defs/>
	<rect id="back" rx="21.000000" width="118.588242" height="118.660957" fill="#F2F2F2" fill-opacity="1.000000"/>
	<path id="path" d="M38.14 39.29L50.65 32.33L67.34 32.33L79.85 39.29L85.41 60.16L74.29 68.51L74.29 87.99L43.7 87.99L43.7 68.51L32.58 60.16L38.14 39.29Z" fill="#000000" fill-opacity="0" fill-rule="nonzero"/>
	<path id="path" d="M50.65 32.33L67.34 32.33L79.85 39.29L85.41 60.16L74.29 68.51L74.29 87.99L43.7 87.99L43.7 68.51L32.58 60.16L38.14 39.29L50.65 32.33Z" stroke="#10BB87" stroke-opacity="1.000000" stroke-width="4.000000" stroke-linejoin="round"/>
	<path id="path" d="M41.37 60.54L41.35 60.52C41.35 59.4 42.23 58.52 43.35 58.52C44.47 58.52 45.35 59.4 45.35 60.52L45.33 60.54L41.37 60.54ZM45.33 70.24L45.35 70.26C45.35 71.38 44.47 72.26 43.35 72.26C42.23 72.26 41.35 71.38 41.35 70.26L41.37 70.24L45.33 70.24Z" fill="#000000" fill-opacity="0" fill-rule="nonzero"/>
	<path id="path" d="M43.35 60.52L43.35 70.26" stroke="#10BB87" stroke-opacity="1.000000" stroke-width="4.000000" stroke-linejoin="round" stroke-linecap="round"/>
	<path id="path" d="M72.84 60.54L72.82 60.52C72.82 59.4 73.7 58.52 74.82 58.52C75.94 58.52 76.82 59.4 76.82 60.52L76.8 60.54L72.84 60.54ZM76.8 70.24L76.82 70.26C76.82 71.38 75.94 72.26 74.82 72.26C73.7 72.26 72.82 71.38 72.82 70.26L72.84 70.24L76.8 70.24Z" fill="#000000" fill-opacity="0" fill-rule="nonzero"/>
	<path id="path" d="M74.82 60.52L74.82 70.26" stroke="#10BB87" stroke-opacity="1.000000" stroke-width="4.000000" stroke-linejoin="round" stroke-linecap="round"/>
</svg>
